Coordinates
version=1
nRows=20
nColumns=34
inDegrees=yes

Units are S.I. units (second, meters, Newtons, ...)
If the header above contains a line with 'inDegrees', this indicates whether rotational values are in degrees (yes) or radians (no).

endheader
time	pelvis_tilt	pelvis_list	pelvis_rotation	pelvis_tx	pelvis_ty	pelvis_tz	hip_flexion_r	hip_adduction_r	hip_rotation_r	knee_angle_r	ankle_angle_r	subtalar_angle_r	mtp_angle_r	hip_flexion_l	hip_adduction_l	hip_rotation_l	knee_angle_l	ankle_angle_l	subtalar_angle_l	mtp_angle_l	lumbar_extension	lumbar_bending	lumbar_rotation	arm_flex_r	arm_add_r	arm_rot_r	elbow_flex_r	pro_sup_r	arm_flex_l	arm_add_l	arm_rot_l	elbow_flex_l	pro_sup_l
      0.00000000	      2.78705079	     -0.79009999	     -0.79531290	     -0.02616193	      1.24708201	     -0.08039063	     -8.90223147	      1.19817797	      0.94698864	      3.44349031	     11.14192818	      1.23098878	      0.00000000	     -9.53441490	     -0.80914410	     -1.57736201	      1.99061754	      7.75499977	     -2.15113047	      0.00000000	     -2.96220784	      3.59470786	     -1.80725940	      4.06420661	    -11.60739718	     32.05027574	     16.94760848	     66.00146855	     -0.38465100	    -10.01069433	     33.39248690	     21.77012760	     53.43020513
      0.01666670	      2.87674773	     -0.29325939	     -1.33419443	     -0.02221598	      1.24153671	     -0.08161792	     -9.21159901	      0.69175282	      2.72385859	      3.27401021	     14.02968900	      1.95336132	      0.00000000	    -10.36214405	      0.19461180	     -2.15651306	      1.42781562	      6.87041333	     -1.98631054	      0.00000000	     -2.31995032	      3.40490490	     -1.52216424	      4.08819377	    -11.40808940	     31.06817533	     16.57221707	     65.82557482	     -0.87598309	     -9.52738050	     33.34863770	     21.29794134	     53.59640447
      0.03333330	      1.82792470	      0.41295684	     -1.90153076	     -0.02427068	      1.24203987	     -0.08066723	     -8.20608451	     -0.08919695	      1.68207798	      2.94335821	     14.72832961	      3.19741617	      0.00000000	     -9.28709720	      1.06629643	     -3.32121867	      1.68005411	      7.46430369	     -0.44385853	      0.00000000	     -1.08565182	      2.44269307	     -0.59959637	      3.35420387	    -10.48691737	     23.96065668	     16.55360032	     64.88692627	     -0.76731747	     -9.47853719	     31.87667692	     20.57630589	     54.94304847
      0.05000000	      2.26219944	      0.65482004	     -2.40589168	     -0.02520477	      1.24077376	     -0.07945300	     -8.54438038	     -0.45341173	      2.18246996	      2.85868258	     15.57709241	      3.22709674	      0.00000000	    -10.48531462	      1.57048547	     -3.69555834	      0.40234201	      6.94785552	     -0.61045383	      0.00000000	     -1.65227610	      2.02027249	     -0.02464260	      3.21297072	    -10.36749882	     23.24293856	     16.71027420	     64.92107053	     -0.76994251	     -9.76849796	     31.62668612	     20.80589236	     55.14138908
      0.06666670	      2.13843298	      0.67641456	     -2.56807127	     -0.02802313	      1.24077892	     -0.07831421	     -8.44286150	     -0.43006277	      1.89708753	      2.65956264	     15.52397158	      3.10351516	      0.00000000	    -10.45420127	      1.69848600	     -3.83138637	      0.00000000	      7.12969624	     -0.68072983	      0.00000000	     -1.73975514	      2.11649105	      0.11321514	      3.60312087	    -10.47453429	     23.07294465	     16.83603218	     64.91195176	     -0.50133478	     -9.96169122	     31.54315313	     20.85915686	     55.16374123
      0.08333330	      2.71736280	      0.72695988	     -2.72114534	     -0.03213516	      1.24317135	     -0.07824180	     -8.83415763	     -0.42785097	      2.04424459	      2.44561518	     15.08594737	      2.51945289	      0.00000000	    -10.78105764	      1.83056710	     -4.83311951	      0.00000000	      7.96267173	      0.64780403	      0.00000000	     -3.35020394	      2.06619945	      0.78373345	      3.39648186	    -10.28319439	     16.82407747	     18.39406675	     64.63799499	      0.02002619	    -10.04966377	     29.66470396	     21.85847432	     56.21985557
      0.10000000	      2.59922046	      0.75704174	     -2.64852988	     -0.03173236	      1.24285692	     -0.07845013	     -8.68576102	     -0.42381054	      2.01494362	      2.08079380	     15.06864168	      2.52597579	      0.00000000	    -10.44439435	      1.83794839	     -4.81197950	      0.00000000	      8.00642624	      0.63728397	      0.00000000	     -3.46160865	      2.14762889	      0.89587092	      3.68164708	    -10.30789450	     16.78119996	     18.46286342	     64.65282281	      0.25299004	    -10.10945388	     29.63050153	     21.89451516	     56.23316684
      0.11666670	      2.32954862	      0.80073534	     -2.55068146	     -0.03306293	      1.24552926	     -0.07880197	     -8.38416683	     -0.43664419	      1.89452661	      1.86278658	     14.39365749	      2.61373490	      0.00000000	     -9.98681567	      1.85240737	     -4.66671220	      0.00000000	      7.88800200	      0.66905464	      0.00000000	     -3.49377590	      2.16803891	      1.05832087	      3.89696215	    -10.41500742	     16.61386128	     18.48018864	     64.71089359	      0.67845849	    -10.07462723	     29.56767565	     22.03122786	     56.29862937
      0.13333330	      2.20138142	      0.84091031	     -2.49511285	     -0.03451435	      1.24593373	     -0.07861711	     -8.31006924	     -0.45975869	      1.85333898	      1.49932872	     14.32212344	      2.59929378	      0.00000000	     -9.72371910	      1.84854936	     -4.67078079	      0.00000000	      7.84109593	      0.67800892	      0.00000000	     -3.62277597	      2.21093717	      1.15874606	      4.09229917	    -10.43846320	     16.57748061	     18.52486446	     64.72143412	      0.80484870	    -10.03211429	     29.56034850	     22.08570282	     56.31243739
      0.15000000	      1.97676324	      0.91289340	     -2.37973675	     -0.03676789	      1.25092994	     -0.07818997	     -8.14721353	     -0.49886910	      1.77194128	      0.93990084	     13.38830234	      2.69808677	      0.00000000	     -9.33979825	      1.84914213	     -4.57996802	      0.00000000	      7.30109058	      0.84989486	      0.00000000	     -3.62234443	      2.14619734	      1.24988172	      4.18062463	    -10.48929619	     16.45223639	     18.50745985	     64.76647652	      1.17675433	    -10.01719228	     29.53919146	     22.29428173	     56.37717219
      0.16666670	      1.84123148	      0.95999785	     -2.28134830	     -0.03962370	      1.24986466	     -0.07874876	     -7.99189084	     -0.54759911	      1.74498001	      0.57867600	     13.30223805	      2.68573664	      0.00000000	     -9.03822012	      1.86349637	     -4.58575176	      0.00000000	      7.22945616	      0.86739925	      0.00000000	     -3.86780280	      2.20645655	      1.33771187	      4.35129992	    -10.48035056	     16.42920197	     18.54200704	     64.77604328	      1.29260335	     -9.99186055	     29.54236701	     22.35019803	     56.39230601
      0.18333330	      1.71795414	      0.97006090	     -2.16577396	     -0.04096019	      1.24969843	     -0.07942385	     -7.77811849	     -0.59697195	      1.74715055	      0.31071643	     12.58321386	      2.69180311	      0.00000000	     -8.74547441	      1.83492628	     -4.36642991	      0.00000000	      6.77687583	      1.06895918	      0.00000000	     -4.08555516	      2.20075799	      1.38411354	      4.52164461	    -10.56797973	     16.32369421	     18.55183889	     64.82427857	      1.67739651	     -9.99603429	     29.59163369	     22.66306150	     56.48465887
      0.20000000	      1.62447900	      0.97417926	     -2.00204760	     -0.04183598	      1.25134491	     -0.07987394	     -7.70991737	     -0.63699114	      1.82632979	      0.06828018	     12.43736257	      2.71627641	      0.00000000	     -8.49397027	      1.82450747	     -4.32850867	      0.00000000	      6.71585615	      1.11003431	      0.00000000	     -4.28768355	      2.27726800	      1.35126402	      4.64344739	    -10.59428069	     16.29689663	     18.56728208	     64.83981990	      1.92525899	     -9.91748309	     29.61967492	     22.81284277	     56.51798947
      0.21666670	      1.59552223	      0.93859566	     -1.92874856	     -0.04239369	      1.25308109	     -0.08087966	     -7.69557600	     -0.68982957	      1.88940924	      0.00000000	     12.11459904	      2.77681648	      0.00000000	     -8.37455868	      1.78775782	     -4.21716642	      0.00000000	      6.54372745	      1.23368517	      0.00000000	     -4.42780403	      2.42384866	      1.39654420	      4.77286010	    -10.62717837	     16.27588679	     18.57396881	     64.86004595	      2.10081314	     -9.81844821	     29.67242690	     22.98234457	     56.56208696
      0.23333330	      1.59712772	      0.90982606	     -1.92979030	     -0.04277657	      1.25008998	     -0.08098776	     -7.74072795	     -0.74663728	      1.88958465	      0.02354897	     12.10724782	      2.77724837	      0.00000000	     -8.33460009	      1.75584597	     -4.21597259	      0.00000000	      6.53980769	      1.23580450	      0.00000000	     -4.43229283	      2.42808364	      1.40132201	      4.77650857	    -10.62501219	     16.27599165	     18.57441536	     64.86061313	      2.10209455	     -9.81721190	     29.67395317	     22.98544860	     56.56315791
      0.25000000	      1.59584571	      0.92612802	     -1.74200073	     -0.04209950	      1.25036482	     -0.08170465	     -7.78130045	     -0.87774173	      1.96634168	      0.09553774	     12.03954010	      2.82064103	      0.00000000	     -8.27235030	      1.75185999	     -4.18825091	      0.00000000	      6.47022198	      1.27814726	      0.00000000	     -4.48901493	      2.55432001	      1.44713713	      4.80833091	    -10.58824769	     16.28167415	     18.57458015	     64.86764698	      2.13893636	     -9.75358987	     29.69891929	     23.04782115	     56.57772373
      0.26666670	      1.65333416	      0.86086272	     -1.47662773	     -0.04331872	      1.25337453	     -0.08246693	     -8.01559842	     -0.91476033	      2.11886470	      0.08723594	     11.82423489	      2.89250190	      0.00000000	     -8.22492948	      1.65790378	     -3.98631265	      0.00000000	      5.87721979	      1.57526824	      0.00000000	     -4.84373091	      2.79798548	      1.53179121	      4.91021167	    -10.66353062	     16.28809849	     18.44545562	     64.93317169	      2.42031892	     -9.63328823	     29.96896845	     23.52875143	     56.74447623
      0.28333330	      1.63453991	      0.85539603	     -1.27649342	     -0.04560407	      1.25582729	     -0.08234235	     -8.10934382	     -0.98962514	      2.16805920	      0.15886985	     11.81905246	      2.91310871	      0.00000000	     -8.13645819	      1.62148205	     -4.05497941	      0.00000000	      5.87567589	      1.54909186	      0.00000000	     -4.87856220	      2.83291936	      1.55339780	      4.92760447	    -10.60602746	     16.29764806	     18.45070337	     64.93908349	      2.43622268	     -9.59284932	     29.99391146	     23.56532060	     56.75723963
      0.30000000	      1.60563108	      0.79885964	     -1.02676947	     -0.04631156	      1.25696262	     -0.08247300	     -8.17747128	     -0.99740442	      2.19338423	      0.19492616	     11.88847508	      2.89664251	      0.00000000	     -8.01957325	      1.52964885	     -4.23091693	      0.00000000	      5.71501726	      1.54841919	      0.00000000	     -5.06411699	      2.96554330	      1.44281641	      4.89952007	    -10.41825604	     16.33645714	     18.41882267	     64.95995991	      2.68021047	     -9.41087329	     30.09194317	     23.75957176	     56.81066517
      0.31666670	      2.27017345	      0.63047171	     -0.95026484	     -0.04773676	      1.24635114	     -0.08221956	     -8.95785907	     -0.90745499	      2.09721269	      0.27782796	     12.15894235	      2.67643113	      0.00000000	     -8.71764900	      1.33108339	     -4.58303472	      0.00000000	      5.73808296	      2.06784029	      0.00000000	     -6.22097575	      3.15980931	      1.59194530	      5.48341713	    -10.39884238	     16.78748666	     17.96870579	     65.38279540	      2.90655968	    -10.00296461	     32.07519816	     25.08303593	     57.95562465
